<?xml version="1.0" encoding="UTF-8"?>
<svg xmlns="http://www.w3.org/2000/svg" xmlns:xlink="http://www.w3.org/1999/xlink" width="50px" height="50px" viewBox="0 0 50 50" version="1.1">
<g id="surface1">
<path style=" stroke:none;fill-rule:nonzero;fill:rgb(7.058824%,4.705882%,49.019608%);fill-opacity:1;" d="M 34.246094 10.503906 C 35.46875 10.089844 36.550781 9.746094 37.496094 9.46875 C 39.511719 8.875 41.769531 8.566406 43.773438 8.429688 C 45.261719 8.328125 46.457031 8.316406 47.363281 8.390625 C 47.605469 8.410156 47.980469 8.453125 48.234375 8.558594 C 49.820312 9.226562 49.578125 11.132812 48.871094 12.367188 C 48.214844 13.507812 47.328125 14.863281 46.273438 15.667969 C 45.140625 16.535156 43.953125 17.324219 42.714844 18.035156 C 42.136719 18.367188 41.535156 18.65625 40.914062 18.894531 C 39.34375 19.507812 37.730469 19.992188 36.078125 20.355469 C 34.4375 20.710938 33.289062 20.910156 32.625 20.949219 C 32.324219 20.96875 32.078125 20.996094 31.886719 21.035156 C 31.761719 21.058594 31.652344 21.074219 31.558594 21.074219 C 31.179688 21.074219 30.820312 21.164062 30.4375 21.183594 C 29.867188 21.207031 29.414062 21.273438 28.894531 21.320312 C 28.589844 21.347656 28.242188 21.242188 27.917969 21.3125 C 27.730469 21.351562 27.726562 21.410156 27.898438 21.484375 C 27.921875 21.492188 27.972656 21.53125 28.050781 21.597656 C 29.066406 22.476562 30.058594 23.574219 30.542969 24.847656 C 31.027344 26.109375 31.253906 27.4375 31.46875 28.765625 C 31.550781 29.257812 31.625 29.609375 31.695312 29.824219 C 31.914062 30.476562 32.335938 30.859375 32.632812 31.414062 C 32.667969 31.476562 32.652344 31.550781 32.59375 31.59375 L 32.492188 31.671875 C 32.464844 31.691406 32.457031 31.71875 32.46875 31.753906 C 32.550781 31.964844 32.640625 32.160156 32.679688 32.386719 C 32.726562 32.664062 32.773438 32.84375 32.820312 32.925781 C 33.226562 33.664062 33.558594 34.625 32.765625 35.242188 C 32.546875 35.414062 32.394531 35.65625 32.3125 35.960938 C 31.738281 38.152344 30.328125 39.789062 28.371094 40.894531 C 28.136719 41.027344 27.554688 41.238281 26.625 41.53125 C 25.507812 41.882812 24.167969 42.207031 22.609375 42.5 C 21.527344 42.703125 20.472656 42.933594 19.460938 43.277344 C 17.507812 43.9375 15.722656 44.253906 13.679688 44.035156 C 13.621094 44.03125 13.484375 44.003906 13.269531 43.960938 C 12.664062 43.839844 12.066406 43.730469 11.199219 43.453125 C 10.601562 43.265625 9.851562 42.933594 8.949219 42.464844 C 8.039062 41.996094 7.246094 41.628906 6.390625 41.21875 C 5.765625 40.914062 5.261719 40.628906 4.886719 40.363281 C 4.277344 39.9375 3.96875 39.527344 3.570312 39.007812 C 3.367188 38.742188 2.980469 38.710938 2.695312 38.554688 C 2.664062 38.539062 2.632812 38.539062 2.601562 38.554688 C 2.199219 38.738281 1.824219 38.957031 1.46875 39.214844 C 1.355469 39.296875 1.234375 39.355469 1.101562 39.394531 C 1.089844 39.398438 1.074219 39.398438 1.066406 39.386719 C 1.054688 39.375 1.050781 39.359375 1.058594 39.347656 C 1.179688 38.996094 1.957031 38.230469 2.289062 38.054688 C 2.3125 38.042969 2.324219 38.023438 2.316406 37.996094 L 2.089844 36.742188 C 2.082031 36.710938 2.0625 36.6875 2.03125 36.671875 C 1.757812 36.546875 1.027344 36.652344 0.753906 36.675781 C 0.574219 36.6875 0.558594 36.644531 0.710938 36.546875 C 1.003906 36.351562 1.316406 36.210938 1.652344 36.128906 C 2.304688 35.960938 2.199219 35.554688 2.480469 35.074219 C 2.765625 34.59375 3.183594 34.421875 3.628906 34.179688 C 4.058594 33.941406 3.621094 33.019531 3.414062 32.753906 C 3.324219 32.644531 3.183594 32.605469 3.113281 32.453125 C 3.105469 32.441406 3.105469 32.425781 3.117188 32.410156 C 3.125 32.398438 3.140625 32.390625 3.15625 32.394531 L 3.355469 32.40625 C 3.402344 32.410156 3.441406 32.390625 3.46875 32.355469 C 3.496094 32.324219 3.503906 32.277344 3.492188 32.234375 C 3.375 31.855469 3.171875 31.519531 2.886719 31.230469 C 2.820312 31.164062 2.789062 31.078125 2.796875 30.992188 C 2.796875 30.976562 2.808594 30.960938 2.820312 30.953125 C 2.835938 30.945312 2.855469 30.945312 2.867188 30.957031 L 3.105469 31.117188 C 3.140625 31.140625 3.1875 31.144531 3.226562 31.125 C 3.265625 31.109375 3.292969 31.070312 3.296875 31.03125 C 3.410156 30.121094 3.359375 29.1875 3.539062 28.316406 C 4.027344 25.886719 5.21875 23.667969 6.8125 21.785156 C 8.65625 19.601562 10.746094 17.851562 13.304688 16.710938 C 13.785156 16.496094 13.703125 16.019531 13.875 15.609375 C 14.191406 14.855469 14.578125 14.132812 15.097656 13.496094 C 15.789062 12.65625 16.566406 11.882812 17.40625 11.1875 C 20.71875 8.445312 24.59375 6.464844 28.886719 5.929688 C 29.664062 5.832031 30.484375 5.898438 31.273438 5.945312 C 33.066406 6.050781 34.191406 6.132812 34.644531 6.183594 C 34.738281 6.195312 34.917969 6.265625 35.183594 6.398438 C 36.460938 7.035156 34.773438 9.597656 34.261719 10.238281 C 34.203125 10.3125 34.175781 10.386719 34.183594 10.460938 C 34.1875 10.5 34.210938 10.515625 34.246094 10.503906 Z M 22.175781 18.746094 C 22.164062 18.738281 22.164062 18.722656 22.171875 18.710938 C 22.554688 18.128906 22.9375 17.625 23.320312 17.195312 C 23.949219 16.488281 24.652344 15.839844 25.429688 15.25 C 27.492188 13.6875 29.800781 12.351562 32.175781 11.320312 C 32.40625 11.21875 32.789062 10.9375 32.996094 10.707031 C 33.367188 10.296875 35.429688 7.671875 34.871094 7.199219 C 34.570312 6.941406 33.859375 6.726562 33.433594 6.738281 C 33.015625 6.753906 32.621094 6.6875 32.207031 6.660156 C 31.839844 6.636719 31.4375 6.699219 31.074219 6.6875 C 30.066406 6.648438 29.375 6.636719 29 6.652344 C 28.320312 6.683594 27.769531 6.746094 27.34375 6.84375 C 26.113281 7.125 24.820312 7.554688 23.46875 8.132812 C 23.371094 8.175781 23.195312 8.257812 22.941406 8.386719 C 21.828125 8.945312 20.667969 9.5625 19.339844 10.46875 C 18.90625 10.761719 18.421875 11.128906 18.050781 11.472656 C 17.582031 11.898438 17.089844 12.324219 16.675781 12.769531 C 15.726562 13.789062 14.757812 14.941406 14.160156 16.207031 C 14.140625 16.242188 14.144531 16.289062 14.171875 16.324219 C 14.195312 16.359375 14.234375 16.378906 14.277344 16.375 L 15.234375 16.300781 C 15.273438 16.296875 15.308594 16.3125 15.328125 16.34375 C 15.351562 16.371094 15.355469 16.410156 15.339844 16.441406 C 15.246094 16.675781 14.644531 16.824219 14.421875 16.921875 C 14.203125 17.019531 13.96875 17.109375 13.71875 17.191406 C 12.265625 17.6875 10.96875 18.449219 9.828125 19.480469 C 8.734375 20.46875 7.8125 21.402344 7.058594 22.285156 C 5.558594 24.039062 4.628906 26.175781 4.101562 28.476562 C 4.039062 28.746094 4.023438 28.996094 3.945312 29.335938 C 3.898438 29.535156 3.921875 29.726562 3.875 29.917969 C 3.699219 30.65625 3.609375 31.582031 4.550781 31.835938 C 4.664062 31.863281 4.738281 31.808594 4.769531 31.667969 C 4.941406 30.914062 5.394531 30.464844 6.140625 30.371094 C 6.789062 30.285156 7.257812 30.601562 7.679688 31.070312 C 8.179688 31.636719 8.261719 32.199219 8.480469 32.847656 C 8.503906 32.917969 8.570312 32.960938 8.640625 32.960938 C 9.730469 32.925781 10.660156 32.976562 11.664062 33.433594 C 11.800781 33.492188 11.882812 33.578125 11.917969 33.6875 C 11.929688 33.726562 11.917969 33.769531 11.890625 33.796875 C 11.863281 33.824219 11.820312 33.835938 11.785156 33.824219 C 11.480469 33.734375 11.1875 33.652344 10.914062 33.585938 C 10.648438 33.519531 10.277344 33.488281 9.960938 33.382812 C 9.925781 33.371094 9.894531 33.371094 9.863281 33.382812 C 9.664062 33.460938 9.46875 33.386719 9.300781 33.40625 C 8.257812 33.53125 6.902344 34.265625 6.691406 35.347656 C 6.65625 35.546875 6.625 35.6875 6.601562 35.765625 C 6.589844 35.796875 6.589844 35.828125 6.597656 35.863281 C 6.671875 36.15625 6.550781 36.398438 6.636719 36.65625 C 6.765625 37.027344 7.023438 37.195312 7.402344 37.347656 C 8.195312 37.671875 8.640625 37.269531 9.210938 36.785156 C 9.265625 36.738281 9.351562 36.738281 9.410156 36.78125 C 10.085938 37.316406 10.875 37.605469 11.777344 37.652344 C 12.367188 37.683594 12.980469 37.351562 13.527344 37.128906 C 13.570312 37.109375 13.601562 37.074219 13.617188 37.027344 C 13.628906 36.984375 13.621094 36.9375 13.59375 36.898438 C 13.375 36.582031 12.753906 35.816406 12.761719 35.445312 C 12.761719 35.273438 12.820312 35.253906 12.929688 35.382812 C 13.316406 35.835938 13.734375 36.316406 14.230469 36.613281 C 14.898438 37.007812 15.628906 37.226562 16.429688 37.261719 C 16.445312 37.261719 16.460938 37.269531 16.46875 37.28125 C 16.480469 37.292969 16.484375 37.308594 16.480469 37.324219 C 16.46875 37.382812 16.425781 37.421875 16.355469 37.445312 C 15.75 37.613281 15.070312 37.5 14.476562 37.347656 C 14.3125 37.308594 14.175781 37.3125 14.066406 37.367188 C 13.699219 37.558594 13.332031 37.742188 12.960938 37.921875 C 12.859375 37.972656 12.679688 38.03125 12.417969 38.105469 C 12.035156 38.214844 11.71875 38.433594 11.46875 38.769531 C 11.277344 39.03125 10.824219 39.339844 10.503906 39.171875 C 10.136719 38.984375 9.699219 38.699219 9.1875 38.3125 C 8.882812 38.085938 8.582031 37.929688 8.179688 37.9375 C 7.546875 37.953125 7.007812 37.882812 6.558594 37.4375 C 5.925781 36.800781 5.914062 35.796875 6.316406 35.011719 C 6.386719 34.878906 6.347656 34.785156 6.210938 34.730469 C 5.898438 34.609375 5.554688 34.492188 5.183594 34.375 C 4.480469 34.160156 4.789062 33.558594 4.46875 33.117188 C 4.445312 33.082031 4.40625 33.0625 4.367188 33.058594 C 4.324219 33.054688 4.285156 33.066406 4.253906 33.097656 C 4.015625 33.324219 4.703125 34.109375 4.152344 34.550781 C 3.617188 34.972656 3.019531 35.300781 2.871094 36.050781 C 2.863281 36.078125 2.875 36.101562 2.898438 36.117188 C 3.109375 36.257812 3.53125 36.472656 3.605469 36.730469 C 3.621094 36.789062 3.597656 36.828125 3.539062 36.84375 C 3.328125 36.910156 3.117188 36.902344 2.902344 36.824219 C 2.84375 36.804688 2.777344 36.816406 2.726562 36.855469 C 2.679688 36.894531 2.652344 36.960938 2.660156 37.023438 C 2.691406 37.222656 2.75 37.421875 2.84375 37.613281 C 2.875 37.679688 2.929688 37.699219 3 37.675781 C 3.3125 37.574219 3.761719 37.464844 4.109375 37.53125 C 4.164062 37.542969 4.210938 37.589844 4.222656 37.644531 C 4.230469 37.703125 4.203125 37.761719 4.15625 37.792969 L 3.75 38.039062 C 3.703125 38.070312 3.667969 38.121094 3.660156 38.175781 C 3.652344 38.230469 3.667969 38.289062 3.703125 38.332031 C 3.84375 38.5 3.984375 38.671875 4.121094 38.84375 C 4.328125 39.105469 4.617188 39.300781 4.847656 39.566406 C 4.972656 39.714844 5.105469 39.792969 5.265625 39.882812 C 6.519531 40.589844 7.785156 41.261719 9.066406 41.90625 C 10.546875 42.652344 11.929688 43.074219 13.558594 43.324219 C 14.464844 43.460938 15.359375 43.390625 16.269531 43.351562 C 16.355469 43.347656 16.464844 43.328125 16.605469 43.289062 C 16.808594 43.238281 16.996094 43.261719 17.195312 43.214844 C 17.394531 43.167969 17.621094 43.152344 17.800781 43.097656 C 20.320312 42.304688 22.648438 41.558594 25.175781 41.175781 C 26.371094 40.992188 27.53125 40.671875 28.5625 40.015625 C 29.027344 39.722656 29.589844 39.214844 29.949219 38.851562 C 31.15625 37.640625 31.847656 36.183594 32.027344 34.480469 C 32.039062 34.394531 32.113281 34.332031 32.199219 34.335938 C 32.308594 34.34375 32.417969 34.359375 32.523438 34.390625 C 32.5625 34.398438 32.589844 34.386719 32.609375 34.355469 C 32.628906 34.332031 32.628906 34.308594 32.613281 34.285156 C 32.53125 34.144531 32.578125 33.824219 32.597656 33.675781 C 32.617188 33.527344 32.605469 33.398438 32.570312 33.28125 C 32.464844 32.957031 32.378906 32.671875 32.203125 32.355469 C 31.898438 31.800781 31.699219 31.195312 31.433594 30.628906 C 31.097656 29.90625 30.855469 29.148438 30.757812 28.351562 C 30.710938 27.96875 30.652344 27.585938 30.589844 27.199219 C 30.425781 26.230469 30.144531 25.296875 29.746094 24.398438 C 29.398438 23.617188 28.515625 22.773438 27.953125 22.296875 C 27.359375 21.792969 26.539062 21.160156 25.886719 21.332031 C 25.632812 21.398438 25.613281 21.355469 25.820312 21.199219 C 26.390625 20.769531 27.59375 20.742188 28.296875 20.730469 C 28.902344 20.722656 29.480469 20.613281 30.074219 20.589844 C 31.1875 20.550781 32.316406 20.371094 33.425781 20.25 C 34.4375 20.136719 35.625 19.898438 36.988281 19.527344 C 38.683594 19.070312 40.121094 18.597656 41.601562 17.796875 C 42.890625 17.101562 43.84375 16.546875 44.460938 16.132812 C 44.988281 15.78125 45.324219 15.550781 45.464844 15.4375 C 46.972656 14.238281 48.175781 12.710938 48.808594 10.878906 C 49.109375 10.003906 48.484375 9.589844 47.859375 9.1875 C 47.820312 9.164062 47.773438 9.148438 47.730469 9.144531 C 46.03125 9.039062 44.339844 9.0625 42.652344 9.214844 C 42.371094 9.242188 41.953125 9.3125 41.398438 9.429688 C 41.160156 9.480469 40.585938 9.585938 39.675781 9.742188 C 39.222656 9.824219 38.441406 10.007812 37.328125 10.304688 C 35.6875 10.734375 34.117188 11.355469 32.550781 12 C 28.726562 13.570312 25.109375 15.753906 22.265625 18.753906 C 22.246094 18.773438 22.21875 18.777344 22.195312 18.761719 Z M 6.710938 32.882812 C 6.699219 32.890625 6.691406 32.902344 6.691406 32.914062 C 6.691406 32.925781 6.699219 32.9375 6.710938 32.945312 C 6.824219 33.015625 6.949219 33.0625 7.082031 33.085938 C 7.171875 33.097656 7.234375 33.167969 7.246094 33.257812 L 7.269531 33.496094 C 7.273438 33.53125 7.289062 33.558594 7.316406 33.578125 C 7.347656 33.59375 7.382812 33.597656 7.410156 33.585938 C 7.644531 33.496094 7.847656 33.363281 8.023438 33.183594 C 8.046875 33.160156 8.0625 33.125 8.0625 33.089844 C 8.058594 32.988281 8.027344 32.875 7.964844 32.753906 C 7.652344 32.121094 7.304688 31.578125 6.917969 31.125 C 6.902344 31.105469 6.871094 31.101562 6.851562 31.117188 L 6.824219 31.140625 C 6.785156 31.171875 6.777344 31.207031 6.808594 31.25 C 7.019531 31.523438 7.28125 32.03125 7.230469 32.386719 C 7.191406 32.648438 6.910156 32.757812 6.710938 32.882812 Z M 4.125 32.183594 C 4.085938 32.167969 4.042969 32.171875 4.011719 32.203125 C 3.976562 32.230469 3.964844 32.273438 3.976562 32.3125 L 4.035156 32.496094 C 4.046875 32.539062 4.082031 32.566406 4.121094 32.574219 L 4.417969 32.613281 C 4.457031 32.621094 4.496094 32.601562 4.519531 32.570312 C 4.546875 32.539062 4.550781 32.5 4.535156 32.460938 L 4.496094 32.375 C 4.484375 32.351562 4.464844 32.332031 4.4375 32.320312 Z M 5.484375 32.453125 L 5.257812 32.320312 C 5.214844 32.292969 5.164062 32.289062 5.117188 32.304688 C 5.070312 32.320312 5.035156 32.355469 5.015625 32.398438 C 4.851562 32.785156 5.242188 33.367188 5.515625 33.605469 C 5.558594 33.644531 5.617188 33.664062 5.671875 33.65625 C 5.730469 33.652344 5.78125 33.625 5.820312 33.582031 C 5.972656 33.402344 6.429688 32.671875 6.207031 32.445312 C 5.941406 32.183594 5.863281 32.160156 5.585938 32.441406 C 5.558594 32.46875 5.515625 32.476562 5.484375 32.453125 Z M 5.484375 32.453125 "/>
<path style=" stroke:none;fill-rule:nonzero;fill:rgb(7.058824%,4.705882%,49.019608%);fill-opacity:1;" d="M 38.292969 12.5625 C 39.964844 11.800781 41.636719 11.183594 43.441406 10.824219 C 44.308594 10.648438 45.207031 10.65625 46.105469 10.652344 C 46.390625 10.648438 46.914062 10.683594 46.890625 11.101562 C 46.796875 12.808594 43.875 14.804688 42.535156 15.59375 C 40.929688 16.546875 39.234375 17.296875 37.449219 17.847656 C 36.296875 18.199219 35.289062 18.453125 34.425781 18.601562 C 34.140625 18.648438 33.9375 18.6875 33.808594 18.71875 C 33.628906 18.761719 33.460938 18.71875 33.304688 18.769531 C 33.050781 18.851562 32.796875 18.8125 32.566406 18.859375 C 32.386719 18.898438 32.207031 18.9375 32.023438 18.972656 C 31.914062 18.996094 31.730469 18.953125 31.589844 18.96875 C 31.027344 19.039062 30.449219 19.089844 29.894531 19.210938 C 28.933594 19.421875 27.976562 19.566406 27.003906 19.703125 C 26.734375 19.742188 26.480469 19.765625 26.242188 19.773438 C 25.949219 19.78125 25.613281 19.835938 25.328125 19.761719 C 25.300781 19.753906 25.28125 19.730469 25.28125 19.703125 C 25.277344 19.675781 25.292969 19.652344 25.316406 19.636719 C 25.519531 19.535156 25.722656 19.421875 25.933594 19.339844 C 27.019531 18.914062 28.101562 18.476562 29.175781 18.03125 C 29.601562 17.855469 30 17.652344 30.371094 17.425781 C 32.019531 16.421875 33.652344 15.339844 35.222656 14.214844 C 36.136719 13.558594 37.421875 12.960938 38.292969 12.5625 Z M 38.292969 12.5625 "/>
<path style=" stroke:none;fill-rule:nonzero;fill:rgb(7.058824%,4.705882%,49.019608%);fill-opacity:1;" d="M 16.519531 26.511719 C 16.066406 26.394531 15.546875 26.46875 15.199219 26.789062 C 15.058594 26.917969 14.898438 27.027344 14.71875 27.117188 C 14.699219 27.125 14.679688 27.125 14.667969 27.113281 C 14.652344 27.101562 14.640625 27.085938 14.644531 27.066406 C 14.660156 26.574219 15.230469 26.023438 15.703125 25.933594 C 16.039062 25.867188 16.3125 25.871094 16.523438 25.945312 C 16.777344 26.035156 17.289062 26.3125 17.316406 26.621094 C 17.316406 26.660156 17.300781 26.675781 17.261719 26.671875 C 17.007812 26.628906 16.761719 26.578125 16.519531 26.511719 Z M 16.519531 26.511719 "/>
<path style=" stroke:none;fill-rule:nonzero;fill:rgb(7.058824%,4.705882%,49.019608%);fill-opacity:1;" d="M 6.914062 26.71875 C 6.703125 26.453125 5.925781 26.949219 5.679688 27.078125 C 5.648438 27.097656 5.609375 27.09375 5.582031 27.074219 C 5.554688 27.054688 5.539062 27.019531 5.546875 26.984375 C 5.664062 26.203125 7.261719 25.808594 7.5625 26.699219 C 7.578125 26.746094 7.566406 26.800781 7.535156 26.835938 C 7.503906 26.875 7.453125 26.894531 7.40625 26.886719 C 7.234375 26.863281 7.03125 26.863281 6.914062 26.71875 Z M 6.914062 26.71875 "/>
<path style=" stroke:none;fill-rule:nonzero;fill:rgb(7.058824%,4.705882%,49.019608%);fill-opacity:1;" d="M 18.535156 31.660156 C 18.929688 31.644531 19.300781 31.554688 19.648438 31.378906 C 19.816406 31.296875 19.84375 31.332031 19.738281 31.484375 C 19.515625 31.808594 19.140625 31.964844 18.796875 32.144531 C 18.660156 32.21875 18.59375 32.371094 18.582031 32.542969 C 18.566406 32.851562 18.402344 33.078125 18.097656 33.226562 C 17.191406 33.660156 16.097656 34.019531 15.097656 34.136719 C 14.90625 34.160156 14.75 34.242188 14.5625 34.246094 C 14.316406 34.253906 14.070312 34.265625 13.824219 34.28125 C 13.558594 34.300781 13.4375 34.171875 13.460938 33.902344 C 13.476562 33.675781 13.484375 33.445312 13.480469 33.21875 C 13.472656 32.980469 13.5625 32.785156 13.585938 32.550781 C 13.648438 31.957031 13.851562 31.390625 14.199219 30.851562 C 14.558594 30.285156 15.328125 29.84375 15.992188 29.792969 C 16.871094 29.722656 17.449219 30.089844 18.007812 30.726562 C 18.078125 30.804688 18.195312 30.824219 18.285156 30.765625 C 18.597656 30.566406 18.9375 30.421875 19.296875 30.332031 C 19.320312 30.324219 19.34375 30.332031 19.359375 30.347656 C 19.371094 30.367188 19.378906 30.390625 19.367188 30.410156 C 19.332031 30.5 19.269531 30.582031 19.179688 30.652344 C 18.898438 30.867188 18.644531 31.132812 18.421875 31.453125 C 18.394531 31.492188 18.390625 31.546875 18.414062 31.589844 C 18.4375 31.632812 18.484375 31.660156 18.535156 31.660156 Z M 16.460938 30.542969 C 16.765625 30.824219 17.257812 31.902344 16.808594 32.328125 C 16.773438 32.363281 16.777344 32.390625 16.820312 32.410156 C 17.042969 32.519531 17.148438 32.667969 17.140625 32.855469 C 17.136719 32.949219 17.148438 33.015625 17.171875 33.0625 C 17.199219 33.128906 17.25 33.144531 17.3125 33.113281 C 17.535156 33.003906 18.003906 32.78125 18.074219 32.53125 C 18.167969 32.191406 17.898438 31.578125 17.730469 31.226562 C 17.476562 30.710938 17.089844 30.410156 16.566406 30.324219 C 16.292969 30.28125 16.257812 30.351562 16.460938 30.542969 Z M 14.84375 32.007812 L 14.460938 31.835938 C 14.402344 31.808594 14.332031 31.816406 14.277344 31.851562 C 13.761719 32.214844 14.503906 33.070312 14.765625 33.355469 C 14.84375 33.441406 14.972656 33.464844 15.078125 33.417969 C 15.550781 33.207031 15.996094 32.332031 15.808594 31.785156 C 15.792969 31.738281 15.753906 31.699219 15.707031 31.679688 C 15.660156 31.660156 15.605469 31.664062 15.5625 31.6875 L 14.945312 32.007812 C 14.910156 32.023438 14.878906 32.023438 14.84375 32.007812 Z M 14.84375 32.007812 "/>
<path style=" stroke:none;fill-rule:nonzero;fill:rgb(7.058824%,4.705882%,49.019608%);fill-opacity:1;" d="M 19.539062 33.703125 C 20.695312 33.265625 21.886719 33.054688 23.125 33.066406 C 23.152344 33.066406 23.171875 33.070312 23.1875 33.078125 C 23.207031 33.085938 23.214844 33.105469 23.214844 33.125 C 23.210938 33.144531 23.199219 33.160156 23.179688 33.164062 C 21.332031 33.605469 19.574219 34.136719 17.898438 35.050781 C 17.742188 35.136719 17.601562 35.15625 17.480469 35.113281 C 17.429688 35.09375 17.394531 35.050781 17.382812 35 C 17.375 34.945312 17.394531 34.890625 17.4375 34.855469 C 18.046875 34.34375 18.796875 33.984375 19.539062 33.703125 Z M 19.539062 33.703125 "/>
<path style=" stroke:none;fill-rule:nonzero;fill:rgb(7.058824%,4.705882%,49.019608%);fill-opacity:1;" d="M 10.125 34.160156 C 11.214844 34.300781 10.648438 35.378906 10.183594 35.761719 C 9.609375 36.234375 8.5625 35.8125 8.273438 35.1875 C 8 34.597656 8.566406 34.164062 9.125 34.128906 C 9.460938 34.109375 9.792969 34.121094 10.125 34.160156 Z M 10.125 34.160156 "/>
<path style=" stroke:none;fill-rule:nonzero;fill:rgb(7.058824%,4.705882%,49.019608%);fill-opacity:1;" d="M 19.226562 36.003906 C 18.972656 36.078125 18.667969 36.234375 18.351562 36.234375 C 18.285156 36.238281 18.226562 36.199219 18.199219 36.136719 C 18.171875 36.074219 18.183594 36.003906 18.230469 35.957031 C 18.699219 35.460938 20.265625 35.171875 20.933594 35.148438 C 21.449219 35.132812 22.066406 35.0625 22.503906 35.136719 C 23.058594 35.230469 23.679688 35.304688 24.214844 35.488281 C 24.339844 35.53125 24.335938 35.566406 24.207031 35.59375 C 24.128906 35.609375 24.027344 35.617188 23.898438 35.613281 C 22.730469 35.609375 21.574219 35.710938 20.410156 35.789062 C 20.007812 35.816406 19.613281 35.886719 19.226562 36.003906 Z M 19.226562 36.003906 "/>
</g>
</svg>
