<?xml version="1.0" encoding="UTF-8" standalone="no"?>
<!DOCTYPE svg PUBLIC "-//W3C//DTD SVG 1.1//EN" "http://www.w3.org/Graphics/SVG/1.1/DTD/svg11.dtd">
<svg xmlns="http://www.w3.org/2000/svg" version="1.1" viewBox="0.00 0.00 500.00 500.00">
<path fill="#120c7d" d="
  M 342.47 105.02
  Q 360.80 98.85 374.96 94.68
  C 395.12 88.76 417.68 85.65 437.75 84.29
  Q 460.06 82.78 473.63 83.90
  C 476.07 84.10 479.80 84.53 482.34 85.60
  C 498.19 92.27 495.80 111.34 488.72 123.66
  C 482.16 135.08 473.29 148.62 462.75 156.67
  Q 445.72 169.68 427.16 180.35
  Q 418.47 185.34 409.15 188.96
  Q 385.56 198.13 360.77 203.54
  Q 336.20 208.90 326.25 209.50
  Q 321.73 209.78 318.88 210.35
  Q 317.01 210.72 315.59 210.73
  C 311.80 210.74 308.19 211.66 304.39 211.83
  C 298.66 212.07 294.13 212.72 288.94 213.20
  C 285.88 213.49 282.43 212.43 279.17 213.12
  Q 276.37 213.71 279.00 214.84
  Q 279.34 214.98 280.50 215.99
  C 290.66 224.78 300.57 235.76 305.44 248.47
  C 310.28 261.09 312.54 274.36 314.70 287.64
  Q 315.90 295.04 316.96 298.23
  C 319.13 304.77 323.35 308.59 326.34 314.13
  A 1.44 1.43 57.2 0 1 325.95 315.95
  L 324.94 316.71
  Q 324.51 317.03 324.70 317.53
  C 325.49 319.65 326.39 321.61 326.79 323.87
  Q 327.52 328.05 328.20 329.27
  C 332.25 336.65 335.59 346.25 327.65 352.43
  Q 324.35 355.01 323.14 359.62
  C 317.38 381.54 303.28 397.90 283.73 408.95
  Q 280.21 410.94 266.25 415.32
  Q 249.48 420.58 226.10 425.00
  C 215.28 427.05 204.73 429.33 194.59 432.77
  C 175.09 439.38 157.21 442.54 136.81 440.36
  Q 135.90 440.26 132.68 439.61
  C 126.66 438.39 120.66 437.29 112.00 434.54
  Q 103.03 431.69 89.49 424.66
  C 80.40 419.95 72.47 416.30 63.91 412.17
  Q 54.51 407.63 48.85 403.65
  C 42.79 399.38 39.70 395.27 35.69 390.07
  C 33.67 387.44 29.79 387.11 26.94 385.56
  Q 26.49 385.32 26.02 385.53
  Q 20.00 388.29 14.68 392.14
  Q 13.00 393.36 11.03 393.96
  A 0.37 0.37 0.0 0 1 10.57 393.48
  C 11.81 389.96 19.58 382.32 22.91 380.54
  Q 23.25 380.36 23.18 379.98
  L 20.90 367.44
  Q 20.80 366.93 20.33 366.71
  C 17.57 365.46 10.29 366.53 7.53 366.74
  Q 4.84 366.95 7.09 365.47
  Q 11.50 362.55 16.51 361.28
  C 23.04 359.61 21.98 355.55 24.81 350.74
  C 27.65 345.92 31.82 344.23 36.27 341.78
  C 40.58 339.41 36.23 330.18 34.13 327.54
  C 33.25 326.44 31.84 326.05 31.13 324.55
  A 0.43 0.43 0.0 0 1 31.55 323.93
  L 33.57 324.07
  A 1.32 1.32 0.0 0 0 34.92 322.36
  Q 33.14 316.65 28.87 312.31
  C 28.20 311.63 27.89 310.79 27.95 309.92
  A 0.48 0.47 -70.9 0 1 28.69 309.56
  L 31.07 311.16
  A 1.23 1.22 20.6 0 0 32.97 310.30
  C 34.11 301.20 33.61 291.88 35.38 283.15
  C 40.29 258.85 52.20 236.69 68.12 217.85
  C 86.58 196.01 107.46 178.53 133.06 167.09
  C 137.84 164.95 137.02 160.19 138.74 156.08
  C 141.90 148.54 145.78 141.32 150.98 134.97
  C 157.88 126.55 165.65 118.82 174.05 111.87
  C 207.18 84.47 245.93 64.66 288.86 59.29
  C 296.66 58.32 304.84 58.99 312.74 59.45
  Q 339.65 61.05 346.45 61.83
  Q 347.87 62.00 351.85 63.98
  C 364.59 70.34 347.72 95.97 342.63 102.39
  Q 341.74 103.52 341.85 104.62
  Q 341.91 105.21 342.47 105.02
  Z
  M 221.76 187.45
  A 0.28 0.27 -55.0 0 1 221.70 187.09
  Q 227.45 178.40 233.19 171.95
  Q 242.62 161.34 254.31 152.49
  C 274.94 136.87 297.99 123.52 321.74 113.21
  C 324.05 112.20 327.89 109.38 329.96 107.07
  C 333.66 102.96 354.30 76.72 348.73 72.00
  C 345.69 69.42 338.58 67.26 334.34 67.40
  C 330.17 67.54 326.22 66.89 322.08 66.61
  C 318.39 66.36 314.37 67.01 310.75 66.87
  Q 295.63 66.29 290.00 66.53
  Q 279.82 66.97 273.44 68.44
  Q 254.95 72.68 234.69 81.33
  Q 233.23 81.95 229.43 83.86
  C 218.30 89.46 206.68 95.62 193.40 104.68
  C 189.07 107.63 184.22 111.30 180.49 114.71
  C 175.81 119.00 170.88 123.25 166.74 127.71
  C 157.28 137.91 147.56 149.40 141.60 162.06
  A 1.19 1.18 10.2 0 0 142.77 163.74
  L 152.36 163.00
  A 1.04 1.04 0.0 0 1 153.41 164.43
  C 152.48 166.75 146.44 168.25 144.21 169.22
  Q 140.92 170.66 137.17 171.93
  Q 115.41 179.33 98.28 194.81
  Q 81.90 209.60 70.60 222.84
  C 55.59 240.41 46.30 261.77 41.02 284.75
  C 40.40 287.46 40.23 289.98 39.44 293.35
  C 38.98 295.34 39.20 297.28 38.75 299.18
  C 36.99 306.57 36.11 315.81 45.52 318.35
  Q 47.20 318.80 47.69 316.68
  C 49.41 309.14 53.93 304.66 61.40 303.70
  C 67.89 302.87 72.57 306.00 76.78 310.72
  C 81.81 316.36 82.63 321.99 84.79 328.47
  A 1.66 1.65 -10.1 0 0 86.42 329.60
  C 97.29 329.25 106.61 329.75 116.66 334.33
  Q 118.67 335.24 119.17 336.89
  A 1.07 1.07 0.0 0 1 117.84 338.23
  Q 113.26 336.88 109.15 335.86
  C 106.50 335.20 102.77 334.87 99.59 333.81
  Q 99.11 333.64 98.63 333.83
  C 96.65 334.62 94.67 333.86 93.00 334.06
  C 82.58 335.33 69.04 342.67 66.93 353.48
  Q 66.35 356.46 66.00 357.66
  Q 65.86 358.14 65.98 358.62
  C 66.70 361.55 65.50 364.00 66.38 366.55
  C 67.66 370.27 70.25 371.96 74.01 373.49
  C 81.96 376.72 86.41 372.71 92.09 367.87
  A 1.58 1.57 43.7 0 1 94.09 367.83
  Q 104.22 375.82 117.76 376.51
  C 123.69 376.82 129.82 373.53 135.27 371.27
  A 1.53 1.53 0.0 0 0 135.94 368.98
  C 133.74 365.83 127.55 358.18 127.61 354.45
  Q 127.64 351.87 129.31 353.83
  C 133.15 358.36 137.33 363.17 142.31 366.13
  Q 152.30 372.08 164.29 372.60
  A 0.54 0.54 0.0 0 1 164.80 373.26
  Q 164.62 374.13 163.54 374.44
  C 157.50 376.15 150.72 375.01 144.76 373.49
  Q 142.28 372.86 140.68 373.68
  Q 135.17 376.51 129.59 379.23
  Q 128.09 379.96 124.19 381.05
  Q 118.42 382.68 114.69 387.70
  C 112.76 390.31 108.24 393.38 105.02 391.72
  Q 99.56 388.90 91.88 383.13
  C 88.83 380.84 85.81 379.28 81.81 379.38
  C 75.47 379.53 70.06 378.83 65.59 374.36
  C 59.25 368.02 59.15 357.95 63.17 350.12
  Q 64.19 348.13 62.10 347.31
  Q 57.43 345.48 51.82 343.75
  C 44.82 341.59 47.90 335.60 44.70 331.17
  A 1.44 1.44 0.0 0 0 42.54 330.97
  C 40.14 333.25 47.03 341.11 41.51 345.49
  C 36.19 349.71 30.18 353.01 28.70 360.50
  Q 28.62 360.94 28.99 361.19
  C 31.08 362.59 35.33 364.73 36.04 367.30
  Q 36.28 368.18 35.40 368.45
  Q 32.24 369.42 29.03 368.26
  A 1.82 1.81 -84.1 0 0 26.62 370.23
  Q 27.04 373.24 28.44 376.12
  Q 28.93 377.12 29.99 376.77
  C 33.11 375.75 37.63 374.63 41.08 375.31
  A 1.43 1.43 0.0 0 1 41.55 377.93
  L 37.51 380.40
  A 1.96 1.96 0.0 0 0 37.03 383.33
  Q 39.15 385.86 41.21 388.44
  C 43.29 391.04 46.17 393.00 48.46 395.66
  C 49.73 397.13 51.06 397.94 52.66 398.84
  Q 71.44 409.40 90.68 419.08
  C 105.48 426.54 119.29 430.74 135.60 433.23
  C 144.66 434.62 153.58 433.89 162.68 433.50
  Q 163.97 433.44 166.05 432.91
  C 168.08 432.39 169.96 432.63 171.95 432.16
  C 173.95 431.69 176.22 431.52 178.01 430.96
  C 203.20 423.05 226.48 415.60 251.74 411.75
  C 263.73 409.93 275.30 406.70 285.61 400.17
  C 290.26 397.22 295.90 392.15 299.51 388.53
  Q 317.59 370.37 320.28 344.81
  A 1.64 1.63 4.7 0 1 321.99 343.36
  Q 323.65 343.45 325.24 343.89
  Q 325.79 344.04 326.11 343.57
  Q 326.35 343.22 326.13 342.85
  C 325.31 341.43 325.78 338.23 325.97 336.74
  Q 326.25 334.54 325.69 332.82
  C 324.65 329.56 323.78 326.70 322.05 323.55
  C 319.00 318.00 317.00 311.94 314.35 306.30
  C 310.96 299.08 308.57 291.50 307.58 283.52
  Q 306.86 277.76 305.89 272.01
  Q 303.43 257.44 297.46 243.99
  C 293.99 236.18 285.14 227.74 279.53 222.96
  C 273.61 217.93 265.38 211.61 258.85 213.33
  Q 255.08 214.32 258.20 211.98
  C 263.90 207.70 275.94 207.41 282.98 207.31
  C 289.01 207.22 294.79 206.13 300.73 205.91
  C 311.88 205.50 323.16 203.72 334.25 202.49
  Q 349.44 200.81 369.88 195.28
  C 386.85 190.70 401.21 185.98 416.02 177.97
  Q 435.33 167.52 444.61 161.34
  Q 452.52 156.07 454.64 154.38
  C 469.71 142.40 481.74 127.10 488.07 108.78
  C 491.10 100.03 484.86 95.88 478.58 91.88
  A 2.81 2.77 62.8 0 0 477.30 91.46
  Q 451.84 89.84 426.51 92.15
  Q 422.32 92.54 414.00 94.30
  Q 410.40 95.07 396.75 97.44
  Q 389.98 98.62 373.27 103.03
  C 356.88 107.36 341.16 113.57 325.51 120.00
  C 287.27 135.72 251.08 157.52 222.66 187.55
  A 0.53 0.52 -49.2 0 1 221.96 187.61
  L 221.76 187.45
  Z
  M 67.09 328.83
  A 0.36 0.36 0.0 0 0 67.09 329.44
  Q 68.81 330.51 70.83 330.84
  A 1.96 1.95 2.0 0 1 72.45 332.57
  L 72.69 334.97
  A 1.06 1.05 -13.1 0 0 74.12 335.85
  Q 77.60 334.51 80.24 331.83
  A 1.27 1.26 67.1 0 0 80.61 330.91
  Q 80.56 329.37 79.65 327.52
  Q 74.97 318.07 69.19 311.24
  A 0.48 0.48 0.0 0 0 68.52 311.17
  L 68.25 311.39
  Q 67.63 311.87 68.10 312.49
  C 70.19 315.23 72.82 320.33 72.29 323.87
  C 71.90 326.49 69.11 327.57 67.09 328.83
  Z
  M 41.26 321.83
  A 1.09 1.09 0.0 0 0 39.78 323.14
  L 40.34 324.98
  A 1.09 1.09 0.0 0 0 41.23 325.74
  L 44.19 326.14
  A 1.09 1.09 0.0 0 0 45.34 324.62
  L 44.95 323.76
  A 1.09 1.09 0.0 0 0 44.39 323.20
  L 41.26 321.83
  Z
  M 54.83 324.55
  L 52.58 323.20
  A 1.69 1.69 0.0 0 0 50.15 323.99
  C 48.50 327.85 52.42 333.68 55.16 336.06
  A 2.15 2.14 -49.2 0 0 58.20 335.83
  C 59.74 334.01 64.28 326.70 62.06 324.47
  C 59.43 321.82 58.63 321.60 55.87 324.42
  A 0.84 0.84 0.0 0 1 54.83 324.55
  Z"
/>
<path fill="#120c7d" d="
  M 382.93 125.63
  C 399.63 118.00 416.36 111.85 434.41 108.23
  C 443.09 106.49 452.07 106.57 461.05 106.51
  C 463.89 106.48 469.16 106.82 468.92 111.01
  C 467.95 128.09 438.74 148.03 425.37 155.95
  Q 401.26 170.22 374.48 178.47
  Q 357.23 183.78 344.24 186.00
  Q 340.00 186.72 338.07 187.18
  C 336.29 187.60 334.61 187.20 333.05 187.71
  C 330.52 188.52 327.96 188.11 325.68 188.59
  Q 322.97 189.17 320.25 189.73
  C 319.13 189.96 317.31 189.53 315.91 189.70
  C 310.27 190.40 304.49 190.88 298.94 192.09
  C 289.33 194.20 279.78 195.67 270.05 197.05
  Q 266.00 197.62 262.41 197.72
  C 259.48 197.80 256.15 198.35 253.28 197.60
  A 0.66 0.66 0.0 0 1 253.15 196.38
  C 255.21 195.35 257.24 194.22 259.35 193.39
  Q 275.63 187.01 291.77 180.32
  Q 298.15 177.67 303.73 174.27
  C 320.19 164.20 336.53 153.41 352.22 142.16
  C 361.38 135.59 374.21 129.61 382.93 125.63
  Z"
/>
<path fill="#120c7d" d="
  M 165.18 265.13
  C 160.66 263.94 155.48 264.68 152.00 267.90
  Q 149.90 269.84 147.17 271.16
  A 0.51 0.51 0.0 0 1 146.43 270.68
  C 146.61 265.73 152.32 260.25 157.05 259.32
  Q 162.04 258.35 165.24 259.47
  C 167.78 260.35 172.91 263.11 173.15 266.20
  Q 173.20 266.80 172.60 266.71
  Q 168.82 266.10 165.18 265.13
  Z"
/>
<path fill="#120c7d" d="
  M 69.13 267.17
  C 67.05 264.53 59.24 269.51 56.79 270.80
  A 0.92 0.92 0.0 0 1 55.45 269.84
  C 56.64 262.03 72.61 258.07 75.61 267.00
  A 1.44 1.44 0.0 0 1 74.05 268.88
  C 72.33 268.65 70.30 268.65 69.13 267.17
  Z"
/>
<path fill="#120c7d" d="
  M 185.34 316.59
  Q 191.25 316.40 196.49 313.80
  Q 198.98 312.57 197.39 314.85
  C 195.14 318.10 191.39 319.65 187.98 321.45
  C 186.59 322.19 185.93 323.70 185.83 325.43
  Q 185.57 330.05 180.98 332.26
  C 171.91 336.61 160.97 340.19 150.98 341.38
  C 149.06 341.61 147.51 342.43 145.63 342.48
  Q 141.93 342.59 138.24 342.82
  Q 134.25 343.08 134.59 339.02
  Q 134.87 335.60 134.79 332.20
  C 134.73 329.80 135.61 327.84 135.85 325.52
  Q 136.81 316.61 141.98 308.50
  C 145.58 302.85 153.29 298.44 159.91 297.92
  C 168.71 297.21 174.48 300.89 180.06 307.26
  A 2.17 2.16 -37.0 0 0 182.86 307.65
  Q 187.55 304.65 192.97 303.31
  A 0.61 0.61 0.0 0 1 193.69 304.12
  Q 193.16 305.45 191.79 306.51
  Q 187.58 309.75 184.22 314.52
  A 1.31 1.31 0.0 0 0 185.34 316.59
  Z
  M 164.61 305.42
  C 167.65 308.25 172.57 319.01 168.09 323.28
  Q 167.55 323.79 168.22 324.12
  Q 171.52 325.76 171.41 328.56
  Q 171.36 329.93 171.70 330.63
  Q 172.16 331.60 173.13 331.12
  C 175.36 330.02 180.03 327.82 180.73 325.30
  C 181.67 321.93 178.99 315.79 177.29 312.27
  Q 173.53 304.53 165.67 303.25
  Q 161.54 302.58 164.61 305.42
  Z
  M 148.43 320.09
  L 144.60 318.35
  A 1.84 1.83 -50.2 0 0 142.79 318.52
  C 137.62 322.15 145.02 330.71 147.66 333.54
  A 2.75 2.74 -33.4 0 0 150.78 334.18
  C 155.52 332.08 159.96 323.31 158.09 317.86
  A 1.76 1.75 66.6 0 0 155.62 316.88
  L 149.46 320.06
  Q 148.95 320.33 148.43 320.09
  Z"
/>
<path fill="#120c7d" d="
  M 195.40 337.03
  Q 212.71 330.47 231.24 330.66
  Q 231.64 330.66 231.87 330.77
  A 0.46 0.46 0.0 0 1 231.78 331.64
  C 213.32 336.04 195.73 341.38 179.00 350.50
  Q 176.62 351.80 174.81 351.14
  A 1.51 1.51 0.0 0 1 174.36 348.57
  C 180.48 343.42 187.97 339.84 195.40 337.03
  Z"
/>
<path fill="#120c7d" d="
  M 101.24 341.62
  C 112.13 343.01 106.50 353.79 101.85 357.61
  C 96.08 362.35 85.61 358.14 82.72 351.86
  C 80.01 345.99 85.67 341.64 91.25 341.29
  Q 96.27 340.98 101.24 341.62
  Z"
/>
<path fill="#120c7d" d="
  M 192.28 360.03
  C 189.73 360.80 186.69 362.33 183.53 362.36
  A 1.65 1.65 0.0 0 1 182.31 359.57
  C 187.00 354.59 202.67 351.70 209.33 351.49
  C 214.51 351.33 220.66 350.64 225.02 351.37
  C 230.60 352.30 236.79 353.04 242.14 354.89
  Q 244.00 355.54 242.07 355.92
  Q 240.89 356.16 239.00 356.15
  C 227.29 356.11 215.75 357.09 204.09 357.88
  Q 198.07 358.28 192.28 360.03
  Z"
/>
</svg>
